<svg width="802" height="267" viewBox="0 0 802 267" fill="none" xmlns="http://www.w3.org/2000/svg">
<path d="M329 76C357.905 51.1435 392.172 32.2009 428.658 19.3591C502.706 -6.43552 583.299 -6.45351 657.359 19.3081C675.582 25.6855 693.208 33.6563 710.033 43.1281C714.167 45.5953 718.328 47.9818 722.404 50.5014C726.415 53.1474 730.449 55.7219 734.39 58.4305C738.278 61.2309 742.132 64.0574 745.95 66.9099C749.648 69.9532 753.382 72.908 757 75.9999C752.655 74.0023 748.426 71.8675 744.161 69.8212L731.293 63.9131L718.339 58.3576L705.296 53.1691C687.949 46.5124 670.226 40.8832 652.218 36.3108C580.556 18.0101 505.444 18.0075 433.781 36.3032C415.771 40.872 398.048 46.5025 380.703 53.1651C376.372 54.8978 371.973 56.5274 367.662 58.3585L361.188 61.1184C359.041 62.0646 356.827 62.8989 354.712 63.9207L348.287 66.8652C346.146 67.8564 343.947 68.7597 341.847 69.8352L329 76Z" fill="url(#paint0_linear_2_16)"/>
<path d="M93.703 203.179C90.6774 203.173 87.7158 202.307 85.1638 200.681C82.6118 199.056 80.5744 196.739 79.2892 194L40.4039 110.61C39.277 108.189 38.7778 105.523 38.9526 102.859C39.1274 100.194 39.9704 97.6166 41.4039 95.3638C42.8374 93.111 44.8152 91.2555 47.1548 89.9686C49.4944 88.6816 52.1204 88.0046 54.7906 88C57.8163 88.0064 60.7778 88.8727 63.3299 90.498C65.882 92.1232 67.9195 94.4405 69.2049 97.1795L108.09 180.569C109.217 182.99 109.717 185.656 109.542 188.321C109.367 190.985 108.524 193.563 107.091 195.816C105.657 198.069 103.679 199.924 101.339 201.211C98.9996 202.498 96.3734 203.175 93.703 203.179Z" fill="url(#paint1_linear_2_16)"/>
<path d="M15.8893 203.179C24.6647 203.179 31.7786 196.065 31.7786 187.29C31.7786 178.514 24.6647 171.4 15.8893 171.4C7.11388 171.4 0 178.514 0 187.29C0 196.065 7.11388 203.179 15.8893 203.179Z" fill="url(#paint2_linear_2_16)"/>
<path d="M150.654 138.584V187.287C150.654 189.373 150.243 191.44 149.444 193.367C148.646 195.295 147.475 197.047 146 198.522C144.524 199.998 142.773 201.168 140.845 201.966C138.917 202.765 136.851 203.176 134.764 203.176C132.678 203.176 130.612 202.765 128.684 201.966C126.756 201.168 125.005 199.998 123.529 198.522C122.054 197.047 120.883 195.295 120.085 193.367C119.286 191.44 118.875 189.373 118.875 187.287V151.426C118.878 148.023 120.231 144.759 122.636 142.352C125.042 139.944 128.304 138.589 131.708 138.584H150.654Z" fill="url(#paint3_linear_2_16)"/>
<path d="M207.553 126.131C207.541 136.239 203.52 145.93 196.372 153.078C189.225 160.226 179.534 164.247 169.425 164.259H131.708C128.309 164.249 125.053 162.892 122.653 160.486C120.254 158.079 118.906 154.82 118.906 151.421C118.906 148.023 120.254 144.763 122.653 142.356C125.053 139.95 128.309 138.593 131.708 138.584H169.425C172.729 138.584 175.898 137.271 178.234 134.935C180.57 132.598 181.883 129.43 181.883 126.126C181.883 122.822 180.57 119.653 178.234 117.317C175.898 114.98 172.729 113.668 169.425 113.668H131.708C128.304 113.668 125.04 112.316 122.634 109.909C120.227 107.503 118.875 104.239 118.875 100.836C118.875 97.4322 120.227 94.1682 122.634 91.7617C125.04 89.3552 128.304 88.0032 131.708 88.0032H169.425C179.534 88.0131 189.226 92.0333 196.374 99.1815C203.522 106.33 207.543 116.022 207.553 126.131Z" fill="url(#paint4_linear_2_16)"/>
<path d="M251.35 108.25V134.5H286.6V151.15H251.35V178.9H291.1V196H230.35V91.15H291.1V108.25H251.35ZM356.234 111.7C366.134 111.7 374.134 114.85 380.234 121.15C386.334 127.35 389.384 136.05 389.384 147.25V196H368.384V150.1C368.384 143.5 366.734 138.45 363.434 134.95C360.134 131.35 355.634 129.55 349.934 129.55C344.134 129.55 339.534 131.35 336.134 134.95C332.834 138.45 331.184 143.5 331.184 150.1V196H310.184V112.9H331.184V123.25C333.984 119.65 337.534 116.85 341.834 114.85C346.234 112.75 351.034 111.7 356.234 111.7ZM441.904 111.55C448.104 111.55 453.554 112.8 458.254 115.3C462.954 117.7 466.654 120.85 469.354 124.75V112.9H490.504V196.6C490.504 204.3 488.954 211.15 485.854 217.15C482.754 223.25 478.104 228.05 471.904 231.55C465.704 235.15 458.204 236.95 449.404 236.95C437.604 236.95 427.904 234.2 420.304 228.7C412.804 223.2 408.554 215.7 407.554 206.2H428.404C429.504 210 431.854 213 435.454 215.2C439.154 217.5 443.604 218.65 448.804 218.65C454.904 218.65 459.854 216.8 463.654 213.1C467.454 209.5 469.354 204 469.354 196.6V183.7C466.654 187.6 462.904 190.85 458.104 193.45C453.404 196.05 448.004 197.35 441.904 197.35C434.904 197.35 428.504 195.55 422.704 191.95C416.904 188.35 412.304 183.3 408.904 176.8C405.604 170.2 403.954 162.65 403.954 154.15C403.954 145.75 405.604 138.3 408.904 131.8C412.304 125.3 416.854 120.3 422.554 116.8C428.354 113.3 434.804 111.55 441.904 111.55ZM469.354 154.45C469.354 149.35 468.354 145 466.354 141.4C464.354 137.7 461.654 134.9 458.254 133C454.854 131 451.204 130 447.304 130C443.404 130 439.804 130.95 436.504 132.85C433.204 134.75 430.504 137.55 428.404 141.25C426.404 144.85 425.404 149.15 425.404 154.15C425.404 159.15 426.404 163.55 428.404 167.35C430.504 171.05 433.204 173.9 436.504 175.9C439.904 177.9 443.504 178.9 447.304 178.9C451.204 178.9 454.854 177.95 458.254 176.05C461.654 174.05 464.354 171.25 466.354 167.65C468.354 163.95 469.354 159.55 469.354 154.45ZM505.614 154.15C505.614 145.75 507.264 138.3 510.564 131.8C513.964 125.3 518.514 120.3 524.214 116.8C530.014 113.3 536.464 111.55 543.564 111.55C549.764 111.55 555.164 112.8 559.764 115.3C564.464 117.8 568.214 120.95 571.014 124.75V112.9H592.164V196H571.014V183.85C568.314 187.75 564.564 191 559.764 193.6C555.064 196.1 549.614 197.35 543.414 197.35C536.414 197.35 530.014 195.55 524.214 191.95C518.514 188.35 513.964 183.3 510.564 176.8C507.264 170.2 505.614 162.65 505.614 154.15ZM571.014 154.45C571.014 149.35 570.014 145 568.014 141.4C566.014 137.7 563.314 134.9 559.914 133C556.514 131 552.864 130 548.964 130C545.064 130 541.464 130.95 538.164 132.85C534.864 134.75 532.164 137.55 530.064 141.25C528.064 144.85 527.064 149.15 527.064 154.15C527.064 159.15 528.064 163.55 530.064 167.35C532.164 171.05 534.864 173.9 538.164 175.9C541.564 177.9 545.164 178.9 548.964 178.9C552.864 178.9 556.514 177.95 559.914 176.05C563.314 174.05 566.014 171.25 568.014 167.65C570.014 163.95 571.014 159.55 571.014 154.45ZM645.224 111.55C651.424 111.55 656.874 112.8 661.574 115.3C666.274 117.7 669.974 120.85 672.674 124.75V112.9H693.824V196.6C693.824 204.3 692.274 211.15 689.174 217.15C686.074 223.25 681.424 228.05 675.224 231.55C669.024 235.15 661.524 236.95 652.724 236.95C640.924 236.95 631.224 234.2 623.624 228.7C616.124 223.2 611.874 215.7 610.874 206.2H631.724C632.824 210 635.174 213 638.774 215.2C642.474 217.5 646.924 218.65 652.124 218.65C658.224 218.65 663.174 216.8 666.974 213.1C670.774 209.5 672.674 204 672.674 196.6V183.7C669.974 187.6 666.224 190.85 661.424 193.45C656.724 196.05 651.324 197.35 645.224 197.35C638.224 197.35 631.824 195.55 626.024 191.95C620.224 188.35 615.624 183.3 612.224 176.8C608.924 170.2 607.274 162.65 607.274 154.15C607.274 145.75 608.924 138.3 612.224 131.8C615.624 125.3 620.174 120.3 625.874 116.8C631.674 113.3 638.124 111.55 645.224 111.55ZM672.674 154.45C672.674 149.35 671.674 145 669.674 141.4C667.674 137.7 664.974 134.9 661.574 133C658.174 131 654.524 130 650.624 130C646.724 130 643.124 130.95 639.824 132.85C636.524 134.75 633.824 137.55 631.724 141.25C629.724 144.85 628.724 149.15 628.724 154.15C628.724 159.15 629.724 163.55 631.724 167.35C633.824 171.05 636.524 173.9 639.824 175.9C643.224 177.9 646.824 178.9 650.624 178.9C654.524 178.9 658.174 177.95 661.574 176.05C664.974 174.05 667.674 171.25 669.674 167.65C671.674 163.95 672.674 159.55 672.674 154.45ZM791.584 152.65C791.584 155.65 791.384 158.35 790.984 160.75H730.234C730.734 166.75 732.834 171.45 736.534 174.85C740.234 178.25 744.784 179.95 750.184 179.95C757.984 179.95 763.534 176.6 766.834 169.9H789.484C787.084 177.9 782.484 184.5 775.684 189.7C768.884 194.8 760.534 197.35 750.634 197.35C742.634 197.35 735.434 195.6 729.034 192.1C722.734 188.5 717.784 183.45 714.184 176.95C710.684 170.45 708.934 162.95 708.934 154.45C708.934 145.85 710.684 138.3 714.184 131.8C717.684 125.3 722.584 120.3 728.884 116.8C735.184 113.3 742.434 111.55 750.634 111.55C758.534 111.55 765.584 113.25 771.784 116.65C778.084 120.05 782.934 124.9 786.334 131.2C789.834 137.4 791.584 144.55 791.584 152.65ZM769.834 146.65C769.734 141.25 767.784 136.95 763.984 133.75C760.184 130.45 755.534 128.8 750.034 128.8C744.834 128.8 740.434 130.4 736.834 133.6C733.334 136.7 731.184 141.05 730.384 146.65H769.834Z" fill="#343434"/>
<defs>
<linearGradient id="paint0_linear_2_16" x1="329" y1="37.9997" x2="757" y2="37.9997" gradientUnits="userSpaceOnUse">
<stop stop-color="#2A83FF"/>
<stop offset="0.2003" stop-color="#2A7FFF"/>
<stop offset="0.4165" stop-color="#2A72FF"/>
<stop offset="0.64" stop-color="#2A5CFF"/>
<stop offset="0.8672" stop-color="#2A3EFF"/>
<stop offset="1" stop-color="#2A29FF"/>
</linearGradient>
<linearGradient id="paint1_linear_2_16" x1="38.9068" y1="145.593" x2="109.577" y2="145.594" gradientUnits="userSpaceOnUse">
<stop stop-color="#2A83FF"/>
<stop offset="0.2003" stop-color="#2A7FFF"/>
<stop offset="0.4165" stop-color="#2A72FF"/>
<stop offset="0.64" stop-color="#2A5CFF"/>
<stop offset="0.8672" stop-color="#2A3EFF"/>
<stop offset="1" stop-color="#2A29FF"/>
</linearGradient>
<linearGradient id="paint2_linear_2_16" x1="0" y1="187.29" x2="31.7786" y2="187.29" gradientUnits="userSpaceOnUse">
<stop stop-color="#2A83FF"/>
<stop offset="0.2003" stop-color="#2A7FFF"/>
<stop offset="0.4165" stop-color="#2A72FF"/>
<stop offset="0.64" stop-color="#2A5CFF"/>
<stop offset="0.8672" stop-color="#2A3EFF"/>
<stop offset="1" stop-color="#2A29FF"/>
</linearGradient>
<linearGradient id="paint3_linear_2_16" x1="118.875" y1="170.88" x2="150.654" y2="170.88" gradientUnits="userSpaceOnUse">
<stop stop-color="#2A83FF"/>
<stop offset="0.2003" stop-color="#2A7FFF"/>
<stop offset="0.4165" stop-color="#2A72FF"/>
<stop offset="0.64" stop-color="#2A5CFF"/>
<stop offset="0.8672" stop-color="#2A3EFF"/>
<stop offset="1" stop-color="#2A29FF"/>
</linearGradient>
<linearGradient id="paint4_linear_2_16" x1="118.875" y1="126.131" x2="207.553" y2="126.131" gradientUnits="userSpaceOnUse">
<stop stop-color="#2A83FF"/>
<stop offset="0.2003" stop-color="#2A7FFF"/>
<stop offset="0.4165" stop-color="#2A72FF"/>
<stop offset="0.64" stop-color="#2A5CFF"/>
<stop offset="0.8672" stop-color="#2A3EFF"/>
<stop offset="1" stop-color="#2A29FF"/>
</linearGradient>
</defs>
</svg>
