<svg width="1080" height="1080" viewBox="0 0 1080 1080" fill="none" xmlns="http://www.w3.org/2000/svg">
<rect width="1080" height="1080" fill="#1E1E1E"/>
<rect width="1080" height="1080" fill="white"/>
<path d="M506.026 733C495.886 732.979 485.961 730.075 477.409 724.628C468.856 719.181 462.028 711.415 457.721 702.235L327.405 422.771C323.629 414.658 321.956 405.725 322.542 396.796C323.127 387.866 325.952 379.228 330.756 371.678C335.56 364.129 342.189 357.91 350.029 353.597C357.87 349.284 366.671 347.015 375.619 347C385.759 347.021 395.684 349.925 404.237 355.372C412.79 360.818 419.618 368.584 423.926 377.763L554.241 657.227C558.019 665.34 559.692 674.274 559.107 683.204C558.521 692.134 555.696 700.772 550.892 708.322C546.088 715.873 539.459 722.091 531.618 726.404C523.776 730.717 514.975 732.985 506.026 733Z" fill="url(#paint0_linear_2_25)"/>
<path d="M245.25 732.998C274.659 732.998 298.499 709.158 298.499 679.749C298.499 650.34 274.659 626.499 245.25 626.499C215.841 626.499 192 650.34 192 679.749C192 709.158 215.841 732.998 245.25 732.998Z" fill="url(#paint1_linear_2_25)"/>
<path d="M696.884 516.52V679.739C696.884 686.732 695.506 693.656 692.83 700.116C690.154 706.577 686.232 712.447 681.287 717.392C676.343 722.336 670.473 726.259 664.012 728.935C657.552 731.611 650.628 732.988 643.635 732.988C636.642 732.988 629.718 731.611 623.257 728.935C616.797 726.259 610.927 722.336 605.982 717.392C601.037 712.447 597.115 706.577 594.439 700.116C591.763 693.656 590.386 686.732 590.386 679.739V559.559C590.395 548.153 594.928 537.217 602.99 529.149C611.052 521.08 621.985 516.539 633.391 516.52H696.884Z" fill="url(#paint2_linear_2_25)"/>
<path d="M887.569 474.787C887.53 508.664 874.055 541.142 850.101 565.096C826.147 589.051 793.669 602.525 759.792 602.564H633.391C622.001 602.533 611.089 597.986 603.047 589.921C595.005 581.856 590.488 570.932 590.488 559.542C590.488 548.153 595.005 537.228 603.047 529.164C611.089 521.099 622.001 516.552 633.391 516.52H759.792C770.865 516.52 781.485 512.122 789.314 504.292C797.144 496.462 801.543 485.843 801.543 474.77C801.543 463.698 797.144 453.078 789.314 445.249C781.485 437.419 770.865 433.02 759.792 433.02H633.391C621.985 433.02 611.047 428.489 602.982 420.424C594.917 412.36 590.386 401.421 590.386 390.016C590.386 378.61 594.917 367.671 602.982 359.607C611.047 351.542 621.985 347.011 633.391 347.011H759.792C793.671 347.044 826.152 360.517 850.107 384.472C874.063 408.428 887.536 440.909 887.569 474.787Z" fill="url(#paint3_linear_2_25)"/>
<defs>
<linearGradient id="paint0_linear_2_25" x1="322.388" y1="540.011" x2="559.225" y2="540.015" gradientUnits="userSpaceOnUse">
<stop stop-color="#2A83FF"/>
<stop offset="0.2003" stop-color="#2A7FFF"/>
<stop offset="0.4165" stop-color="#2A72FF"/>
<stop offset="0.64" stop-color="#2A5CFF"/>
<stop offset="0.8672" stop-color="#2A3EFF"/>
<stop offset="1" stop-color="#2A29FF"/>
</linearGradient>
<linearGradient id="paint1_linear_2_25" x1="192" y1="679.749" x2="298.499" y2="679.749" gradientUnits="userSpaceOnUse">
<stop stop-color="#2A83FF"/>
<stop offset="0.2003" stop-color="#2A7FFF"/>
<stop offset="0.4165" stop-color="#2A72FF"/>
<stop offset="0.64" stop-color="#2A5CFF"/>
<stop offset="0.8672" stop-color="#2A3EFF"/>
<stop offset="1" stop-color="#2A29FF"/>
</linearGradient>
<linearGradient id="paint2_linear_2_25" x1="590.386" y1="624.754" x2="696.884" y2="624.754" gradientUnits="userSpaceOnUse">
<stop stop-color="#2A83FF"/>
<stop offset="0.2003" stop-color="#2A7FFF"/>
<stop offset="0.4165" stop-color="#2A72FF"/>
<stop offset="0.64" stop-color="#2A5CFF"/>
<stop offset="0.8672" stop-color="#2A3EFF"/>
<stop offset="1" stop-color="#2A29FF"/>
</linearGradient>
<linearGradient id="paint3_linear_2_25" x1="590.386" y1="474.787" x2="887.569" y2="474.787" gradientUnits="userSpaceOnUse">
<stop stop-color="#2A83FF"/>
<stop offset="0.2003" stop-color="#2A7FFF"/>
<stop offset="0.4165" stop-color="#2A72FF"/>
<stop offset="0.64" stop-color="#2A5CFF"/>
<stop offset="0.8672" stop-color="#2A3EFF"/>
<stop offset="1" stop-color="#2A29FF"/>
</linearGradient>
</defs>
</svg>
